<svg width="285" height="231" viewBox="0 0 285 231" fill="none" xmlns="http://www.w3.org/2000/svg">
<path d="M124.453 19.4445C111.518 24.3831 101.806 35.6048 89.9591 42.336C83.0384 46.2682 74.4011 52.6927 71.8335 60.5788C69.774 66.9045 68.3613 73.5475 65.9348 79.7592C63.4967 86.0009 62.8367 92.5404 60.8175 98.8224C58.5653 105.829 61.2429 112.451 62.7316 119.448C64.7687 129.022 66.8362 138.589 70.31 147.77C72.8164 154.394 77.6759 162.283 83.8261 166.247C109.11 182.541 142.24 177.653 171.251 177.653C181.715 177.653 192.395 175.831 202.698 174.138C212.259 172.566 222.749 170.541 231.722 166.794C241.732 162.614 241.778 151.959 238.754 142.887C235.224 132.298 236.82 121.303 233.285 110.698C227.472 93.2591 220.61 76.741 211.096 60.8523C200.714 43.512 189.191 22.7646 169.767 14.1318C168.595 13.6111 167.321 14.123 166.173 13.624C163.123 12.2978 160.448 9.4615 157.657 7.64722C153.844 5.16851 150.842 2.56891 146.289 2.56891C141.995 2.56891 138.191 2.88935 135.976 6.82688C133.881 10.5529 131.673 12.1233 127.968 13.9756C124.918 15.5007 122.47 18.1435 119.57 19.8352C117.396 21.1033 114.472 23.3042 112.499 25.0697C111.314 26.1297 109.148 26.7368 108.28 28.0386C106.656 30.4752 105.881 32.391 103.749 34.5232C100.228 38.0436 94.645 38.0462 90.1545 39.9921C79.7555 44.4984 69.9219 52.6302 64.7239 62.7664C54.9301 81.8641 51.0095 111.959 64.5285 129.839C67.4264 133.672 68.7358 138.255 71.3257 142.105C74.9075 147.43 78.7404 153.566 83.0839 158.317C87.4527 163.095 92.8708 166.866 98.3188 170.231C102.82 173.012 106.524 176.382 111.327 178.669C118.485 182.077 124.669 182.771 132.344 183.435C148.587 184.841 164.49 184.974 180.392 180.505C192.973 176.969 209.006 174.816 216.018 162.731C219.892 156.056 224.365 150.665 227.464 143.433C234.639 126.693 230.477 102.569 218.909 88.7439C212.282 80.8231 207.256 71.9949 201.096 63.7821C192.954 52.9257 181.322 46.4146 170.314 38.9765C163.411 34.3124 156.794 31.3981 148.438 31.3981C138.163 31.3981 128.868 34.7027 119.062 37.3358C105.211 41.0551 93.2518 47.215 81.6385 55.5396C74.4478 60.694 70.0123 68.4452 66.2864 76.2825C63.6446 81.8393 60.0256 86.9093 58.1221 92.8066C56.5805 97.5822 55.5935 102.672 54.5282 107.573C51.1929 122.915 53.7016 139.231 59.294 153.824C66.1755 171.782 78.8707 186.348 91.7952 200.232C102.68 211.925 118.239 217.178 133.711 219.374C144.955 220.969 156.748 220.8 168.048 219.842C182.986 218.577 200.311 213.442 213.089 205.584C225.043 198.232 236.722 185.643 243.598 173.435C247.529 166.453 251.742 158.506 253.52 150.621C255.236 143.006 254.571 134.413 254.067 126.714C252.486 102.564 242.44 80.4042 228.206 61.0867C217.683 46.8047 206.367 29.2328 191.603 18.9758C182.62 12.7349 174.074 9.65526 163.321 12.4911C146.732 16.8663 130.03 23.0962 115.702 32.6481C106.195 38.9865 96.0484 45.139 87.1856 52.3363C77.2843 60.377 70.4158 71.2802 65.0754 82.7281C58.7928 96.1958 54.397 110.445 50.8171 124.839C46.3352 142.86 44.295 160.575 51.7546 178.239C54.834 185.531 59.1522 192.996 66.638 196.248C72.5968 198.837 78.7585 200.447 85.2324 201.092C109.211 203.48 133.573 201.512 156.602 194.646C169.522 190.794 182.161 184.451 193.049 176.403C204.832 167.694 211.353 153.081 218.519 140.699C225.41 128.791 227.061 115.597 227.659 102.026C228.259 88.4371 229.316 73.1555 225.902 59.8757C221.452 42.5735 208.56 25.7073 198.205 11.6317C192.938 4.4719 184.357 1.62715 175.704 0.771968C161.13 -0.668574 144.72 6.72338 132.265 13.5068C125.839 17.0067 119.245 20.7008 113.358 25.0697C105.844 30.6463 100.373 38.755 95.1546 46.3986C83.0921 64.0677 71.3096 81.0418 65.5442 101.869C62.7339 112.022 62.2953 120.64 66.2473 130.66C70.8248 142.264 78.2919 154.705 86.4434 164.215C95.1541 174.378 106.093 181.325 117.109 188.669C122.138 192.022 127.277 196.411 133.125 198.279C156.122 205.626 178.989 194.141 197.815 181.872C216.137 169.932 227.047 149.591 233.285 128.98C237.374 115.469 241.289 101.976 238.949 87.8455C237.343 78.1472 235.865 67.4415 230.98 58.7428C226.879 51.4411 222.818 44.253 215.003 40.6953C209.796 38.3251 204.057 36.6944 198.362 36.1248C189.45 35.2337 184.478 39.249 177.15 43.8595C167.254 50.0856 156.657 55.52 147.813 63.2742C141.807 68.5401 137.878 75.9062 133.047 82.1812C121.071 97.7346 109.459 113.026 98.7485 129.449C89.1904 144.104 82.8547 159.299 79.1384 176.403C76.5537 188.301 71.236 203.372 79.7244 214.061C82.1748 217.147 84.1687 220.681 87.42 223.046C95.4764 228.905 107.03 230.384 116.679 229.804C135.8 228.655 155.001 222.68 173.439 217.811C202.82 210.052 232.914 199.541 257.504 181.169C266.073 174.768 275.961 166.189 280.318 156.09C285.534 143.999 284.069 131.018 277.583 119.761C267.366 102.026 254.471 87.4075 236.879 76.6732C224.526 69.1359 211.901 61.6961 198.362 56.4771C182.34 50.3016 165.324 46.5316 148.828 41.8672C113.55 31.8919 76.2904 19.2507 39.137 24.9916C24.0785 27.3184 7.09655 36.8417 2.96379 52.727C-3.27968 76.7253 10.0748 102.073 25.9334 119.214C43.519 138.222 68.6413 143.839 92.8889 149.879C112.555 154.778 131.828 160.978 151.407 166.169C163.915 169.485 176.838 173.17 189.846 173.435C210.409 173.853 234.644 172.064 252.192 160.27C262.179 153.557 269.396 146.068 273.599 134.683C277.518 124.067 282.376 113.033 283.755 101.713C286.82 76.561 270.274 56.2674 249.77 43.586C220.757 25.6427 184.893 23.118 151.719 24.6791C133.447 25.539 115.258 28.3382 97.5766 33.0388C86.6385 35.9467 76.0698 38.7553 67.6146 46.594C50.4269 62.5284 56.1021 92.2053 62.341 112.026C69.6182 135.146 80.3473 155.825 92.8108 176.482C100.549 189.306 108.995 202.607 118.906 213.905C122.005 217.438 127.237 224.649 132.656 224.765C136.716 224.851 140.08 223.833 143.711 221.913C152.163 217.443 160.105 211.723 168.4 206.912C186.205 196.585 202.264 184.29 219.144 172.614C234.967 161.669 252.208 150.4 261.879 133.355C269.018 120.774 275.136 106.305 271.802 91.6347C268.667 77.8417 257.139 65.1872 248.285 54.6802C241.444 46.5625 235.037 40.9713 225.98 35.8904C217.971 31.3978 209.55 27.8399 201.487 23.429C190.391 17.3594 179.721 13.8545 166.915 14.9522C142.65 17.0321 118.661 21.7655 94.3734 23.9759C70.9893 26.1041 47.8069 27.95 25.3084 34.9138" stroke="black" stroke-linecap="round"/>
</svg>
