<svg width="142" height="139" viewBox="0 0 142 139" fill="none" xmlns="http://www.w3.org/2000/svg">
<path d="M44.0662 8.70499C46.5907 8.29071 49.1912 8.0931 51.7155 7.81349C53.4305 7.62352 55.8807 7.723 57.5228 7.13717C59.5183 6.42529 60.8981 5.71582 62.612 4.61637C64.5107 3.39837 65.7898 3.17151 68.0758 3.17151C71.6105 3.17151 75.1574 3.09419 78.6913 3.17151C81.9886 3.24366 85.238 4.89328 88.4481 5.50787C89.8739 5.78084 90.786 6.19271 91.9762 7.04495C93.6234 8.22452 95.2226 8.75492 97.0341 9.41205C98.2097 9.83851 99.5589 10.1831 100.656 10.7647C101.487 11.2053 102.509 11.0733 103.357 11.6101C105.499 12.966 107.862 14.2591 109.382 16.4365C111.031 18.797 113.594 20.158 116.126 21.4935C118.562 22.7782 121.091 24.85 122.339 27.2729C122.808 28.1822 123.166 28.9562 123.744 29.7937C124.226 30.4909 125.073 30.7417 125.836 31.1771C126.494 31.552 127.063 32.4594 127.741 32.9293C128.64 33.5524 128.646 33.9039 128.646 34.9275C128.646 36.206 129.125 37.0361 129.427 38.2476C129.888 40.1019 130.675 41.8861 131.456 43.6274C132.177 45.2345 133.142 46.2154 133.142 47.9927C133.142 49.7462 132.575 52.602 133.689 54.0641C134.055 54.5457 133.93 55.1107 134.282 55.6012C135.012 56.6193 135.537 57.6793 135.765 58.9213C136.355 62.1421 136.14 66.085 134.828 69.1121C134.278 70.3802 133.708 71.6725 132.768 72.7089C132.478 73.0281 132.178 73.2722 132.362 73.7234C133.738 77.1124 132.939 81.9734 132.736 85.4359C132.498 89.5172 132.752 95.0422 130.957 98.9314C130.097 100.793 127.664 101.52 126.164 102.774C122.85 105.545 121.743 109.602 118.796 112.504C116.964 114.308 115.59 116.211 114.253 118.406C112.631 121.068 111.2 123.824 109.476 126.43C108.734 127.551 108.379 128.06 107.119 128.382C105.433 128.812 103.806 129.335 102.045 129.335C96.8005 129.335 93.5133 132.364 88.9164 134.146C85.0617 135.64 80.8317 136.107 76.8492 137.205C73.9044 138.017 70.2705 137.154 67.4514 136.405C64.0813 135.51 61.4768 134.189 58.678 132.163C56.4243 130.531 53.1518 130.243 50.5916 129.212C49.5758 128.803 48.3373 128.546 47.2196 128.505C45.7969 128.453 44.8999 128.012 43.6603 127.275C40.5142 125.406 36.39 124.53 33.9659 121.696C30.953 118.173 27.4049 115.019 24.6774 111.197C21.7767 107.133 17.673 104.129 14.7176 100.161C13.9407 99.118 13.5321 97.815 12.7506 96.8256C12.1213 96.0289 12.22 94.1737 11.7515 93.1828C10.0741 89.6348 7.24895 86.8862 6.13159 83.1457C5.02535 79.4423 2.07054 76.6497 1.19853 72.8934C0.826661 71.2914 1.04706 69.3586 1.2922 67.7595C1.54759 66.0936 2.34353 65.0775 3.04062 63.5479C5.81277 57.465 9.89826 51.9068 13.1565 46.0252C14.2847 43.9887 15.1988 41.8469 15.9821 39.6617C16.5803 37.9928 17.4733 36.4457 17.793 34.697C18.2177 32.3734 18.8349 29.7665 19.6351 27.5342C21.1369 23.3445 23.8594 20.1689 27.6747 17.8352C30.0607 16.3758 32.2765 14.7884 34.7933 13.5314C37.4878 12.1857 39.9536 10.3337 42.7236 9.10463C46.2671 7.53245 49.2564 5.08817 52.5273 3.0178C54.3172 1.88485 56.9967 1.82484 59.0839 1.78814C61.4214 1.74704 63.018 2.07152 65.2658 2.71039C68.8814 3.73799 72.2324 4.00153 76.0062 4.00153C79.4926 4.00153 82.9791 4.00153 86.4655 4.00153C89.5894 4.00153 93.4368 3.40845 96.4721 4.20135C98.1708 4.64509 99.5542 5.88274 101.218 6.46086C102.729 6.98611 104.341 7.19896 105.839 7.752C108.422 8.70567 111.147 9.91914 113.488 11.3334C115.431 12.5075 117.337 13.6664 119.373 14.6689C120.561 15.2534 121.485 16.2359 122.589 16.9437C123.825 17.7359 124.817 18.1844 125.883 19.234C127.884 21.2043 130.959 23.6443 131.441 26.5658C131.783 28.6445 132.879 30.2119 133.595 32.1608C134.685 35.1271 135.789 38.1873 135.937 41.3833C136.045 43.737 135.88 46.0993 135.952 48.4538C136.018 50.5858 136.886 52.5188 137.232 54.6021C137.492 56.1603 137.47 57.6912 137.857 59.2441C138.469 61.7004 139.289 64.1163 139.824 66.5913C140.499 69.7155 141.7 74.2111 140.323 77.3201C138.539 81.3511 138.319 85.884 136.514 89.7705C135.604 91.73 135.43 93.9141 134.922 95.9803C134.232 98.7877 132.565 100.723 131.238 103.158C130.061 105.318 129.535 107.925 128.116 109.922C127.577 110.679 126.736 111.628 126.414 112.473C125.952 113.687 124.711 114.147 124.01 115.209C123.526 115.942 122.771 116.467 122.074 116.992C121.235 117.624 120.761 118.439 120.029 119.159C118.881 120.29 117.644 121.319 116.501 122.479C114.871 124.135 113.996 126.261 112.005 127.521C110.987 128.165 109.789 128.844 108.914 129.673C107.829 130.701 106.579 130.76 105.167 131.149C103.787 131.529 102.429 131.903 101.077 132.378C99.5853 132.903 98.04 132.899 96.7531 133.885C94.7875 135.39 92.5462 135.725 90.1341 135.975C88.443 136.15 86.8787 136.805 85.1854 136.805C83.3381 136.805 81.4908 136.805 79.6435 136.805C77.147 136.805 74.7257 137.082 72.2283 137.082C69.2366 137.082 66.3365 137.635 63.3301 137.635C61.802 137.635 60.407 137.367 58.959 136.928C57.6835 136.542 56.1042 135.875 54.8065 135.698C53.6129 135.536 51.8246 133.839 50.935 133.239C48.2106 131.402 45.1446 129.993 42.2865 128.351C41.2541 127.758 40.0509 127.488 39.0707 126.845C37.8689 126.056 36.7395 125.183 35.4489 124.493C33.4374 123.418 31.2379 122.759 29.4543 121.296C28.1134 120.196 26.8587 119.588 25.3799 118.821C24.7873 118.514 22.8839 118.005 22.7104 117.407C21.9206 114.685 20.1944 112.08 18.9326 109.553C17.5187 106.72 17.6935 103.603 15.7948 100.96C13.7124 98.0617 11.9841 94.729 10.2841 91.5842C9.12536 89.4407 7.55552 87.4791 6.99019 85.067C4.91714 76.222 5.18587 66.3694 5.7257 57.3689C5.88864 54.6523 5.67987 51.8849 6.35014 49.2224C7.25153 45.6417 9.42878 42.4347 10.9085 39.0776C14.3931 31.1724 17.0425 21.9503 22.929 15.3144C25.2306 12.7198 28.6613 12.0281 31.8896 11.1028C34.248 10.4269 36.6127 9.91929 39.0082 9.41205C46.7668 7.7692 54.6495 6.49071 62.3934 4.7547C65.9775 3.95124 69.7462 2.62895 73.4616 2.37223C75.266 2.24755 77.0994 2.34149 78.9098 2.34149C80.8393 2.34149 82.3347 3.17151 84.2487 3.17151" stroke="#4D333E" stroke-width="2" stroke-linecap="round"/>
</svg>
